HIERARCHY
ROOT root
{
	OFFSET 0.000000 0.000000 0.000000
	CHANNELS 6 Xposition Yposition Zposition Zrotation Yrotation Xrotation
	JOINT lhip
	{
		OFFSET 0.058581 -0.082280 -0.017664
		CHANNELS 3 Zrotation Yrotation Xrotation
		JOINT lknee
		{
			OFFSET 0.043451 -0.386469 0.008037
			CHANNELS 3 Zrotation Yrotation Xrotation
			JOINT lankle
			{
				OFFSET -0.014790 -0.426874 -0.037428
				CHANNELS 3 Zrotation Yrotation Xrotation
				JOINT ltoe
				{
					OFFSET 0.041054 -0.060286 0.122042
					CHANNELS 3 Zrotation Yrotation Xrotation
					End Site
					{
						OFFSET 0.000000 0.000000 0.000000
					}
				}
			}
		}
	}
	JOINT rhip
	{
		OFFSET -0.060310 -0.090513 -0.013543
		CHANNELS 3 Zrotation Yrotation Xrotation
		JOINT rknee
		{
			OFFSET -0.043257 -0.383688 -0.004843
			CHANNELS 3 Zrotation Yrotation Xrotation
			JOINT rankle
			{
				OFFSET 0.019056 -0.420046 -0.034562
				CHANNELS 3 Zrotation Yrotation Xrotation
				JOINT rtoe
				{
					OFFSET -0.034840 -0.062106 0.130323
					CHANNELS 3 Zrotation Yrotation Xrotation
					End Site
					{
						OFFSET 0.000000 0.000000 0.000000
					}
				}
			}
		}
	}
	JOINT lowerback
	{
		OFFSET 0.004439 0.124404 -0.038385
		CHANNELS 3 Zrotation Yrotation Xrotation
		JOINT upperback
		{
			OFFSET 0.004488 0.137956 0.026820
			CHANNELS 3 Zrotation Yrotation Xrotation
			JOINT chest
			{
				OFFSET -0.002265 0.056032 0.002855
				CHANNELS 3 Zrotation Yrotation Xrotation
				JOINT lowerneck
				{
					OFFSET -0.013390 0.211636 -0.033468
					CHANNELS 3 Zrotation Yrotation Xrotation
					JOINT upperneck
					{
						OFFSET 0.010113 0.088937 0.050410
						CHANNELS 3 Zrotation Yrotation Xrotation
						End Site
						{
							OFFSET 0.000000 0.000000 0.000000
						}
					}
				}
				JOINT lclavicle
				{
					OFFSET 0.071702 0.114000 -0.018898
					CHANNELS 3 Zrotation Yrotation Xrotation
					JOINT lshoulder
					{
						OFFSET 0.122921 0.045205 -0.019046
						CHANNELS 3 Zrotation Yrotation Xrotation
						JOINT lelbow
						{
							OFFSET 0.255332 -0.015649 -0.022946
							CHANNELS 3 Zrotation Yrotation Xrotation
							JOINT lwrist
							{
								OFFSET 0.265709 0.012698 -0.007375
								CHANNELS 3 Zrotation Yrotation Xrotation
								End Site
								{
									OFFSET 0.000000 0.000000 0.000000
								}
							}
						}
					}
				}
				JOINT rclavicle
				{
					OFFSET -0.082954 0.112472 -0.023707
					CHANNELS 3 Zrotation Yrotation Xrotation
					JOINT rshoulder
					{
						OFFSET -0.113228 0.046853 -0.008472
						CHANNELS 3 Zrotation Yrotation Xrotation
						JOINT relbow
						{
							OFFSET -0.260127 -0.014369 -0.031269
							CHANNELS 3 Zrotation Yrotation Xrotation
							JOINT rwrist
							{
								OFFSET -0.269108 0.006794 -0.006027
								CHANNELS 3 Zrotation Yrotation Xrotation
								End Site
								{
									OFFSET 0.000000 0.000000 0.000000
								}
							}
						}
					}
				}
			}
		}
	}
}
MOTION
Frames: 10
Frame Time: 0.033333
-0.022534 0.296582 1.269921 88.401618 -0.869484 90.264512 1.494254 5.063400 -2.026885 -3.268288 -1.772947 8.611742 -9.402197 7.835474 29.528096 0.000000 -0.000000 0.000000 -5.562800 -6.272756 -5.970945 0.270808 3.707062 16.852968 16.705927 -4.154584 29.978155 0.000000 -0.000000 0.000000 -0.133391 2.214311 6.734948 1.276014 0.555035 -0.593443 -1.041239 1.723056 -0.458991 2.854307 -2.398793 -20.141857 3.118641 -7.375161 7.142014 -25.516378 4.985401 -2.768710 -27.302294 1.185864 10.176572 -3.614583 -56.857701 17.376263 13.767890 -16.183558 7.664936 25.999982 -0.497724 -0.246963 32.564886 4.799749 1.526940 -36.933021 38.420836 -29.626187 -0.599480 7.494273 14.804574 
-0.029326 0.296715 1.316214 89.146006 -1.086079 88.838445 1.155608 4.370045 -1.690903 -3.683073 -5.097067 9.501935 -10.908780 6.735332 29.771352 0.000000 -0.000000 0.000000 -5.133868 -5.552780 -6.886672 0.573391 5.300532 22.892257 16.327564 -3.824507 31.964359 0.000000 -0.000000 0.000000 -0.045329 2.092514 9.697939 0.677047 0.612088 0.833831 -0.966057 1.277268 -0.808772 3.057630 -2.868891 -22.057858 3.644881 -6.934087 7.180779 -27.659708 2.392594 -2.290837 -31.866718 0.335067 7.801209 8.600607 -50.524673 3.930415 13.880520 -13.325667 8.033401 26.965320 1.610920 1.709076 34.116777 4.006341 1.427414 -34.057313 35.636263 -27.482816 0.410089 6.259870 14.376267 
-0.028706 0.297321 1.350034 89.659850 -1.182519 89.433617 0.829489 3.068150 -1.331009 -2.619806 -4.328170 5.542793 -9.769349 7.847446 27.790551 0.000000 -0.000000 0.000000 -4.626512 -4.572251 -7.097552 0.257105 6.134803 22.346392 16.294671 -3.507504 30.410097 0.000000 -0.000000 0.000000 -0.084744 1.925937 9.455389 0.449264 0.396091 0.566637 -0.986210 0.890936 -1.044288 3.043496 -3.385984 -20.676064 3.798669 -5.922663 8.636319 -29.521315 1.966050 -2.309100 -34.176927 -0.594174 7.631692 10.912348 -43.866821 -2.020349 14.409746 -12.165711 6.964816 27.787354 1.564564 1.931423 35.684892 3.265172 4.018207 -29.520948 33.198290 -22.944415 1.653203 4.928499 14.830721 
-0.027367 0.297278 1.374394 91.044732 -1.403645 90.362377 0.656133 2.278245 -2.714527 -2.349652 -1.496721 4.633439 -9.988607 9.120563 24.576196 0.000000 -0.000000 0.000000 -4.251467 -3.347415 -6.633013 -0.668928 6.001768 19.347665 15.955821 -3.340147 25.904203 0.000000 -0.000000 0.000000 -0.293982 1.538141 8.756290 0.554842 -0.453924 0.069847 -1.001067 0.344368 -1.224878 2.762806 -3.453437 -18.733006 3.707686 -4.956883 8.193611 -31.347748 2.513914 -2.596354 -35.007231 -1.202373 7.719293 9.720082 -39.178262 -1.662330 9.605207 -10.767940 7.148610 29.356745 0.166355 1.788610 36.702228 3.527806 5.570309 -25.678869 31.320878 -17.960490 3.618293 3.687803 14.406777 
-0.029642 0.297410 1.388369 92.326509 -1.619024 90.623999 0.386249 1.295272 -4.136657 -2.491358 -2.165502 6.033611 -8.716406 9.186880 22.861031 0.000000 -0.000000 0.000000 -4.082410 -2.172819 -6.417634 -0.984308 5.923820 17.795851 14.869127 -3.835183 21.548097 0.000000 -0.000000 0.000000 -0.288652 1.284692 9.169818 0.561218 -0.931883 0.442893 -1.062245 -0.138575 -1.378144 2.560924 -2.864738 -19.516122 3.401198 -4.898743 8.332959 -32.454694 1.505823 -1.904847 -35.690099 -1.514197 7.931842 9.214001 -36.665843 0.653280 6.264331 -10.635628 9.195876 30.846556 0.414477 2.661489 37.842874 2.889516 6.025946 -24.358227 29.507252 -16.318323 4.721479 3.291054 12.845859 
-0.031951 0.298671 1.390722 93.104932 -1.432190 90.102104 0.409045 1.287509 -4.646708 -2.608762 -5.060052 8.180622 -8.826447 8.037064 21.841117 0.000000 -0.000000 0.000000 -3.699154 -1.778673 -5.899579 -0.949460 6.304311 17.344807 14.075562 -3.597755 18.073656 0.000000 -0.000000 0.000000 0.264841 0.978635 10.719887 0.562040 -1.033998 0.510274 -0.973156 -0.310293 -1.191388 2.173249 -2.109175 -20.548409 2.984729 -4.903227 8.523395 -32.981457 0.280365 -1.316788 -36.834191 -1.438880 8.929322 8.394778 -35.461225 3.248588 7.489796 -11.224130 9.677557 31.440386 1.252117 3.364295 38.898104 1.846561 6.255047 -22.533732 28.110387 -15.382936 3.085405 3.365349 10.783859 
-0.034130 0.300413 1.381546 93.193255 -1.277429 89.737695 0.522770 0.597060 -5.176039 -3.126655 -6.849912 10.655828 -8.259812 7.622928 20.577925 0.000000 -0.000000 0.000000 -3.465418 -1.454774 -5.982075 -0.822414 7.242625 17.915476 13.120452 -2.920654 14.511753 0.000000 -0.000000 0.000000 0.574166 0.989684 12.322462 0.701164 -0.975555 -0.122745 -0.718760 -0.329055 -0.992729 1.953176 -1.400656 -21.003521 2.517723 -4.596165 9.277968 -33.337356 0.056116 -1.119856 -38.173766 -1.256039 10.006684 7.287675 -35.234774 5.174386 8.769455 -11.332057 8.641366 31.681558 1.771756 3.597045 39.798512 0.882780 7.047548 -20.538815 26.385934 -14.287095 1.495618 3.845032 9.495358 
-0.037074 0.302021 1.361192 93.324514 -1.226917 89.905175 0.610699 -0.403462 -6.584909 -3.825491 -7.369462 13.418207 -7.654218 7.276208 18.451052 0.000000 -0.000000 0.000000 -3.333155 -0.976420 -6.832110 -0.584163 8.644950 18.799248 10.976789 -2.945712 10.875096 0.000000 -0.000000 0.000000 0.679763 1.057226 13.182833 1.005964 -0.994815 -0.785199 -0.481137 -0.611689 -0.505387 2.170938 -0.758572 -21.747703 2.057527 -4.112134 10.461474 -33.873968 0.552841 -0.773885 -39.383301 -1.311200 10.704288 6.860429 -35.911009 5.656143 9.945623 -11.467014 7.286231 32.157628 1.615038 3.649858 40.117737 0.940341 7.990026 -18.500111 24.786841 -12.522025 0.602332 3.822581 9.587940 
-0.039041 0.303912 1.330061 92.813732 -1.406672 90.335264 0.338173 -0.696949 -7.811988 -4.382693 -7.605736 15.263521 -7.097112 7.146151 16.502116 0.000000 -0.000000 0.000000 -3.613909 -0.640759 -8.262475 -0.443779 9.151384 20.179685 8.748268 -3.672311 5.611454 0.000000 -0.000000 0.000000 0.561011 1.294260 13.375400 1.288142 -0.752543 -0.475918 -0.320513 -0.752781 -0.821673 2.280989 -0.786797 -21.823007 2.022239 -3.666953 10.746332 -34.325553 0.486868 -0.156494 -40.253966 -0.283315 11.540868 7.111218 -37.165167 5.501536 9.207384 -10.747755 5.389242 32.390547 2.091243 3.634090 40.856807 -0.354887 8.884044 -17.804853 24.292367 -10.553756 9.225281 1.486758 7.466523 
-0.040803 0.306017 1.288292 92.496001 -1.445102 90.393923 0.033808 -0.889548 -8.429974 -4.620196 -7.499124 16.595204 -6.130762 7.422503 15.768110 0.000000 -0.000000 0.000000 -3.892868 -0.365541 -9.168440 -0.773124 8.212087 20.752272 6.752125 -5.364372 1.446641 0.000000 -0.000000 0.000000 0.853454 1.100885 13.965849 1.430771 -0.543333 -0.361536 -0.201239 -0.752328 -0.651085 2.296444 -0.582085 -22.297335 1.698245 -3.797211 10.649207 -34.652458 0.601078 0.141191 -40.925179 -0.094735 12.005513 6.091608 -37.342257 6.320063 10.871459 -10.805895 4.586035 33.191330 2.170171 4.198177 40.349302 0.346847 8.667632 -16.887477 23.469530 -10.319663 4.737479 2.838086 11.374405 
